<svg width="120" height="120" viewBox="0 0 120 120" fill="none" xmlns="http://www.w3.org/2000/svg">
<path d="M96.5855 43.5855C96.5855 67.2095 70.2333 102.848 62.2591 113.091C61.098 114.583 58.902 114.583 57.7409 113.091C49.7667 102.848 23.4145 67.2095 23.4145 43.5855C23.4145 33.8824 27.269 24.5768 34.1301 17.7156C40.9912 10.8545 50.2969 7 60 7C69.7031 7 79.0087 10.8545 85.8699 17.7156C92.731 24.5768 96.5855 33.8824 96.5855 43.5855Z" fill="#10A1D1"/>
<path d="M60 71.4219C75.3736 71.4219 87.8363 58.9591 87.8363 43.5855C87.8363 28.2119 75.3736 15.7491 60 15.7491C44.6263 15.7491 32.1636 28.2119 32.1636 43.5855C32.1636 58.9591 44.6263 71.4219 60 71.4219Z" fill="white"/>
<path d="M46.5757 51.8088C46.2729 51.8089 45.9769 51.7191 45.7251 51.5509C45.4733 51.3827 45.277 51.1436 45.1611 50.8639C45.0451 50.5841 45.0147 50.2763 45.0737 49.9793C45.1327 49.6823 45.2784 49.4094 45.4925 49.1952L51.6674 43.0203C51.8087 42.8741 51.9776 42.7575 52.1645 42.6773C52.3513 42.5971 52.5522 42.5549 52.7556 42.5532C52.9589 42.5514 53.1605 42.5902 53.3487 42.6672C53.5368 42.7443 53.7078 42.858 53.8515 43.0018C53.9953 43.1456 54.1089 43.3166 54.1859 43.5048C54.2629 43.693 54.3016 43.8946 54.2998 44.098C54.2979 44.3013 54.2557 44.5022 54.1754 44.689C54.0951 44.8758 53.9784 45.0447 53.8321 45.186L47.6625 51.36C47.5201 51.503 47.3507 51.6163 47.1641 51.6933C46.9776 51.7704 46.7776 51.8097 46.5757 51.8088Z" fill="#9EE2F8"/>
<path d="M57.7451 51.8089C57.4423 51.8089 57.1463 51.7192 56.8945 51.551C56.6427 51.3828 56.4464 51.1437 56.3304 50.8639C56.2145 50.5842 56.1841 50.2764 56.2431 49.9793C56.3021 49.6823 56.4478 49.4095 56.6619 49.1953L62.6119 43.2453C62.899 42.9581 63.2885 42.7968 63.6947 42.7968C64.1008 42.7968 64.4903 42.9581 64.7775 43.2453C65.0647 43.5325 65.226 43.922 65.226 44.3281C65.226 44.7342 65.0647 45.1237 64.7775 45.4109L58.8275 51.3609C58.6855 51.5032 58.5168 51.6161 58.331 51.693C58.1453 51.7698 57.9461 51.8092 57.7451 51.8089Z" fill="#9EE2F8"/>
<path d="M68.9145 51.8088C68.6117 51.8088 68.3156 51.7191 68.0638 51.5509C67.812 51.3827 67.6157 51.1436 67.4998 50.8638C67.3839 50.5841 67.3535 50.2762 67.4125 49.9792C67.4714 49.6822 67.6172 49.4094 67.8312 49.1952L74.2117 42.8147C74.4988 42.5276 74.8881 42.3663 75.2941 42.3663C75.7001 42.3663 76.0894 42.5276 76.3765 42.8147C76.6635 43.1017 76.8248 43.4911 76.8248 43.897C76.8248 44.303 76.6635 44.6924 76.3765 44.9794L69.9969 51.3599C69.8549 51.5023 69.6862 51.6153 69.5004 51.6923C69.3147 51.7693 69.1156 51.8089 68.9145 51.8088Z" fill="#9EE2F8"/>
<path d="M46.5758 60.3199C46.2733 60.3196 45.9777 60.2297 45.7263 60.0616C45.4749 59.8935 45.2788 59.6547 45.163 59.3753C45.0471 59.0959 45.0166 58.7885 45.0752 58.4917C45.1339 58.195 45.2791 57.9223 45.4925 57.708L50.0031 53.1974C50.2903 52.9102 50.6798 52.7489 51.0859 52.7489C51.4921 52.7489 51.8816 52.9102 52.1688 53.1974C52.4559 53.4846 52.6173 53.8741 52.6173 54.2802C52.6173 54.6864 52.4559 55.0759 52.1688 55.363L47.6625 59.8719C47.52 60.0148 47.3506 60.128 47.1641 60.2049C46.9775 60.2818 46.7775 60.3209 46.5758 60.3199Z" fill="#9EE2F8"/>
<path d="M57.7451 60.3199C57.4427 60.3195 57.1471 60.2296 56.8957 60.0615C56.6442 59.8934 56.4482 59.6546 56.3323 59.3752C56.2165 59.0958 56.1859 58.7884 56.2446 58.4917C56.3032 58.195 56.4484 57.9223 56.6619 57.708L61.1716 53.1974C61.4588 52.9101 61.8484 52.7486 62.2546 52.7485C62.6608 52.7485 63.0504 52.9097 63.3377 53.1969C63.625 53.4841 63.7864 53.8736 63.7865 54.2799C63.7866 54.6861 63.6253 55.0757 63.3381 55.363L58.8284 59.8736C58.6861 60.0157 58.5172 60.1282 58.3313 60.2048C58.1454 60.2814 57.9462 60.3205 57.7451 60.3199Z" fill="#9EE2F8"/>
<path d="M68.9145 60.3199C68.612 60.3196 68.3164 60.2297 68.065 60.0616C67.8136 59.8935 67.6176 59.6547 67.5017 59.3753C67.3858 59.0959 67.3553 58.7885 67.4139 58.4918C67.4726 58.195 67.6178 57.9223 67.8312 57.708L72.3419 53.1974C72.629 52.9102 73.0185 52.7489 73.4247 52.7489C73.8308 52.7489 74.2203 52.9102 74.5075 53.1974C74.7947 53.4846 74.956 53.8741 74.956 54.2802C74.956 54.6864 74.7947 55.0759 74.5075 55.363L69.9969 59.8737C69.8547 60.0156 69.6859 60.1281 69.5002 60.2047C69.3144 60.2813 69.1154 60.3205 68.9145 60.3199Z" fill="#9EE2F8"/>
<path d="M74.0683 36.9258C74.0193 36.9258 73.9711 36.9319 73.9221 36.9328C73.8894 34.9238 73.1617 32.9881 71.8626 31.4552C70.5636 29.9222 68.7735 28.8867 66.797 28.5249C64.8205 28.1631 62.7797 28.4972 61.0219 29.4705C59.264 30.4438 57.8977 31.9961 57.1554 33.8633C56.3064 33.1262 55.2874 32.6119 54.1901 32.3665C53.0929 32.1212 51.9519 32.1526 50.8698 32.4579C49.7877 32.7632 48.7986 33.3329 47.9914 34.1156C47.1842 34.8983 46.5844 35.8694 46.2459 36.9416C46.1417 36.9346 46.0376 36.9258 45.9317 36.9258C44.7813 36.9582 43.6889 37.4379 42.8867 38.2631C42.0844 39.0882 41.6356 40.1937 41.6356 41.3446C41.6356 42.4954 42.0844 43.6009 42.8867 44.4261C43.6889 45.2512 44.7813 45.7309 45.9317 45.7633H74.0683C75.2187 45.7309 76.3111 45.2512 77.1133 44.4261C77.9156 43.6009 78.3644 42.4954 78.3644 41.3446C78.3644 40.1937 77.9156 39.0882 77.1133 38.2631C76.3111 37.4379 75.2187 36.9582 74.0683 36.9258Z" fill="#10A1D1"/>
</svg>
