<svg width="121" height="130" xmlns="http://www.w3.org/2000/svg" xmlns:xlink="http://www.w3.org/1999/xlink" overflow="hidden"><defs><clipPath id="clip0"><rect x="588" y="288" width="121" height="130"/></clipPath><clipPath id="clip1"><rect x="588" y="297" width="120" height="120"/></clipPath><clipPath id="clip2"><rect x="588" y="297" width="120" height="120"/></clipPath><clipPath id="clip3"><rect x="588" y="297" width="120" height="120"/></clipPath></defs><g clip-path="url(#clip0)" transform="translate(-588 -288)"><g clip-path="url(#clip1)"><g clip-path="url(#clip2)"><g clip-path="url(#clip3)"><path d="M684.586 340.586C684.586 364.21 658.233 399.848 650.259 410.091 649.098 411.583 646.902 411.583 645.741 410.091 637.767 399.848 611.414 364.21 611.414 340.586 611.414 330.882 615.269 321.577 622.13 314.716 628.991 307.854 638.297 304 648 304 657.703 304 667.009 307.854 673.87 314.716 680.731 321.577 684.586 330.882 684.586 340.586Z" fill="#10A1D1"/><path d="M648 368.422C663.374 368.422 675.836 355.959 675.836 340.586 675.836 325.212 663.374 312.749 648 312.749 632.626 312.749 620.164 325.212 620.164 340.586 620.164 355.959 632.626 368.422 648 368.422Z" fill="#FFFFFF"/><path d="M634.576 348.809C634.273 348.809 633.977 348.719 633.725 348.551 633.473 348.383 633.277 348.144 633.161 347.864 633.045 347.584 633.015 347.276 633.074 346.979 633.133 346.682 633.278 346.409 633.492 346.195L639.667 340.02C639.809 339.874 639.978 339.758 640.164 339.677 640.351 339.597 640.552 339.555 640.756 339.553 640.959 339.551 641.161 339.59 641.349 339.667 641.537 339.744 641.708 339.858 641.852 340.002 641.995 340.146 642.109 340.317 642.186 340.505 642.263 340.693 642.302 340.895 642.3 341.098 642.298 341.301 642.256 341.502 642.175 341.689 642.095 341.876 641.978 342.045 641.832 342.186L635.662 348.36C635.52 348.503 635.351 348.616 635.164 348.693 634.978 348.77 634.778 348.81 634.576 348.809Z" fill="#9EE2F8"/><path d="M645.745 348.809C645.442 348.809 645.146 348.719 644.895 348.551 644.643 348.383 644.446 348.144 644.33 347.864 644.214 347.584 644.184 347.276 644.243 346.979 644.302 346.682 644.448 346.409 644.662 346.195L650.612 340.245C650.899 339.958 651.289 339.797 651.695 339.797 652.101 339.797 652.49 339.958 652.777 340.245 653.065 340.533 653.226 340.922 653.226 341.328 653.226 341.734 653.065 342.124 652.777 342.411L646.828 348.361C646.685 348.503 646.517 348.616 646.331 348.693 646.145 348.77 645.946 348.809 645.745 348.809Z" fill="#9EE2F8"/><path d="M656.914 348.809C656.612 348.809 656.316 348.719 656.064 348.551 655.812 348.383 655.616 348.144 655.5 347.864 655.384 347.584 655.354 347.276 655.412 346.979 655.471 346.682 655.617 346.409 655.831 346.195L662.212 339.815C662.499 339.528 662.888 339.366 663.294 339.366 663.7 339.366 664.089 339.528 664.377 339.815 664.664 340.102 664.825 340.491 664.825 340.897 664.825 341.303 664.664 341.692 664.377 341.979L657.997 348.36C657.855 348.502 657.686 348.615 657.5 348.692 657.315 348.769 657.116 348.809 656.914 348.809Z" fill="#9EE2F8"/><path d="M634.576 357.32C634.273 357.32 633.978 357.23 633.726 357.062 633.475 356.893 633.279 356.655 633.163 356.375 633.047 356.096 633.017 355.789 633.075 355.492 633.134 355.195 633.279 354.922 633.492 354.708L638.003 350.197C638.29 349.91 638.68 349.749 639.086 349.749 639.492 349.749 639.882 349.91 640.169 350.197 640.456 350.485 640.617 350.874 640.617 351.28 640.617 351.686 640.456 352.076 640.169 352.363L635.662 356.872C635.52 357.015 635.351 357.128 635.164 357.205 634.977 357.282 634.778 357.321 634.576 357.32Z" fill="#9EE2F8"/><path d="M645.745 357.32C645.443 357.319 645.147 357.23 644.896 357.061 644.644 356.893 644.448 356.655 644.332 356.375 644.216 356.096 644.186 355.788 644.245 355.492 644.303 355.195 644.448 354.922 644.662 354.708L649.172 350.197C649.459 349.91 649.848 349.749 650.255 349.749 650.661 349.749 651.05 349.91 651.338 350.197 651.625 350.484 651.786 350.874 651.786 351.28 651.787 351.686 651.625 352.076 651.338 352.363L646.828 356.874C646.686 357.016 646.517 357.128 646.331 357.205 646.145 357.281 645.946 357.32 645.745 357.32Z" fill="#9EE2F8"/><path d="M656.914 357.32C656.612 357.32 656.316 357.23 656.065 357.062 655.814 356.893 655.618 356.655 655.502 356.375 655.386 356.096 655.355 355.789 655.414 355.492 655.473 355.195 655.618 354.922 655.831 354.708L660.342 350.197C660.629 349.91 661.018 349.749 661.425 349.749 661.831 349.749 662.22 349.91 662.508 350.197 662.795 350.485 662.956 350.874 662.956 351.28 662.956 351.686 662.795 352.076 662.508 352.363L657.997 356.874C657.855 357.016 657.686 357.128 657.5 357.205 657.314 357.281 657.115 357.32 656.914 357.32Z" fill="#9EE2F8"/><path d="M662.068 333.926C662.019 333.926 661.971 333.932 661.922 333.933 661.889 331.924 661.162 329.988 659.863 328.455 658.564 326.922 656.773 325.887 654.797 325.525 652.82 325.163 650.78 325.497 649.022 326.47 647.264 327.444 645.898 328.996 645.155 330.863 644.306 330.126 643.287 329.612 642.19 329.367 641.093 329.121 639.952 329.153 638.87 329.458 637.788 329.763 636.799 330.333 635.991 331.116 635.184 331.898 634.584 332.869 634.246 333.942 634.142 333.935 634.038 333.926 633.932 333.926 632.781 333.958 631.689 334.438 630.887 335.263 630.084 336.088 629.636 337.194 629.636 338.345 629.636 339.495 630.084 340.601 630.887 341.426 631.689 342.251 632.781 342.731 633.932 342.763L662.068 342.763C663.219 342.731 664.311 342.251 665.113 341.426 665.916 340.601 666.364 339.495 666.364 338.345 666.364 337.194 665.916 336.088 665.113 335.263 664.311 334.438 663.219 333.958 662.068 333.926Z" fill="#10A1D1"/></g></g></g><path d="M627.5 342.5C627.5 331.454 637.126 322.5 649 322.5 660.874 322.5 670.5 331.454 670.5 342.5 670.5 353.546 660.874 362.5 649 362.5 637.126 362.5 627.5 353.546 627.5 342.5Z" stroke="#FFFFFF" stroke-linejoin="round" stroke-miterlimit="10" fill="#FFFFFF" fill-rule="evenodd"/><text fill="#FF0000" font-family="Aharoni,Aharoni_MSFontService,sans-serif" font-weight="700" font-size="59" transform="translate(629.833 361)">D</text></g></svg>