<?xml version="1.0" encoding="utf-8"?>
<!-- Generator: Adobe Illustrator 24.3.0, SVG Export Plug-In . SVG Version: 6.00 Build 0)  -->
<svg xmlns:xlink="http://www.w3.org/1999/xlink" version="1.1" id="Layer_1" xmlns="http://www.w3.org/2000/svg" x="0px"
	 y="0px"
	 viewBox="0 0 120 120" style="enable-background:new 0 0 120 120;" xml:space="preserve">
<style type="text/css">
	.st0{fill:#F18945;}
	.st1{fill:#FFFFFF;}
	.st2{fill:none;}
	.st3{enable-background:new    ;}
	.st4{fill:#EF7B0D;}
</style>
	<path class="st0" d="M96.6,43.6c0,23.6-26.4,59.3-34.3,69.5c-1.2,1.5-3.4,1.5-4.5,0c-8-10.2-34.3-45.9-34.3-69.5
	c0-9.7,3.9-19,10.7-25.9C41,10.9,50.3,7,60,7s19,3.9,25.9,10.7C92.7,24.6,96.6,33.9,96.6,43.6z"/>
	<path class="st1" d="M60,71.4c15.4,0,27.8-12.5,27.8-27.8S75.4,15.7,60,15.7S32.2,28.2,32.2,43.5S44.6,71.4,60,71.4z"/>
	<rect x="43.7" y="19.6" class="st2" width="37.8" height="48"/>
	<g class="st3">
	<path class="st4" d="M46.2,21.9h13.6c5.9,0,10.4,1.8,13.4,5.3s4.6,8.7,4.6,15.5c0,7.1-1.5,12.4-4.5,16c-3,3.6-7.5,5.4-13.5,5.4
		H46.2V21.9z M54.5,29.1V57h4.1c3.7,0,6.4-1.1,8.1-3.4c1.7-2.3,2.6-5.8,2.6-10.7c0-4.7-0.9-8.1-2.6-10.4s-4.4-3.4-8-3.4H54.5z"/>
</g>
</svg>
