<?xml version="1.0" encoding="UTF-8"?>
<svg xmlns="http://www.w3.org/2000/svg" xmlns:xlink="http://www.w3.org/1999/xlink" width="160pt" height="160pt" viewBox="0 0 160 160" version="1.1">
<g id="surface1">
<path style=" stroke:none;fill-rule:nonzero;fill:rgb(98.823529%,98.823529%,98.823529%);fill-opacity:1;" d="M 20 44 C 20 26.328125 34.328125 12 52 12 L 108 12 C 125.671875 12 140 26.328125 140 44 L 140 100 C 140 117.671875 125.671875 132 108 132 L 52 132 C 34.328125 132 20 117.671875 20 100 Z M 20 44 "/>
<path style=" stroke:none;fill-rule:evenodd;fill:rgb(62.745098%,63.921569%,74.117647%);fill-opacity:1;" d="M 66 62 C 66 61.46875 66.210938 60.960938 66.585938 60.585938 C 66.960938 60.210938 67.46875 60 68 60 L 92 60 C 92.53125 60 93.039062 60.210938 93.414062 60.585938 C 93.789062 60.960938 94 61.46875 94 62 C 94 62.53125 93.789062 63.039062 93.414062 63.414062 C 93.039062 63.789062 92.53125 64 92 64 L 68 64 C 67.46875 64 66.960938 63.789062 66.585938 63.414062 C 66.210938 63.039062 66 62.53125 66 62 Z M 66 62 "/>
<path style=" stroke:none;fill-rule:evenodd;fill:rgb(62.745098%,63.921569%,74.117647%);fill-opacity:1;" d="M 66 72 C 66 71.46875 66.210938 70.960938 66.585938 70.585938 C 66.960938 70.210938 67.46875 70 68 70 L 92 70 C 92.53125 70 93.039062 70.210938 93.414062 70.585938 C 93.789062 70.960938 94 71.46875 94 72 C 94 72.53125 93.789062 73.039062 93.414062 73.414062 C 93.039062 73.789062 92.53125 74 92 74 L 68 74 C 67.46875 74 66.960938 73.789062 66.585938 73.414062 C 66.210938 73.039062 66 72.53125 66 72 Z M 66 72 "/>
<path style=" stroke:none;fill-rule:evenodd;fill:rgb(62.745098%,63.921569%,74.117647%);fill-opacity:1;" d="M 66 82 C 66 81.46875 66.210938 80.960938 66.585938 80.585938 C 66.960938 80.210938 67.46875 80 68 80 L 92 80 C 92.53125 80 93.039062 80.210938 93.414062 80.585938 C 93.789062 80.960938 94 81.46875 94 82 C 94 82.53125 93.789062 83.039062 93.414062 83.414062 C 93.039062 83.789062 92.53125 84 92 84 L 68 84 C 67.46875 84 66.960938 83.789062 66.585938 83.414062 C 66.210938 83.039062 66 82.53125 66 82 Z M 66 82 "/>
<path style="fill:none;stroke-width:3;stroke-linecap:butt;stroke-linejoin:miter;stroke:rgb(62.745098%,63.921569%,74.117647%);stroke-opacity:1;stroke-miterlimit:4;" d="M 26 6 L 54.25 6 C 63.085938 6 70.25 13.164062 70.25 22 L 70.25 50.25 C 70.25 59.085938 63.085938 66.25 54.25 66.25 L 26 66.25 C 17.164062 66.25 10 59.085938 10 50.25 L 10 22 C 10 13.164062 17.164062 6 26 6 Z M 26 6 " transform="matrix(2,0,0,2,0,0)"/>
</g>
</svg>
