<svg width="80" height="80" viewBox="0 0 80 80" fill="none" xmlns="http://www.w3.org/2000/svg">
<g filter="url(#filter0_d)">
<path d="M10 22C10 13.1634 17.1634 6 26 6H54C62.8366 6 70 13.1634 70 22V50C70 58.8366 62.8366 66 54 66H26C17.1634 66 10 58.8366 10 50V22Z" fill="#FCFCFC"/>
</g>
<path fill-rule="evenodd" clip-rule="evenodd" d="M33 31C33 30.7348 33.1054 30.4804 33.2929 30.2929C33.4804 30.1054 33.7348 30 34 30H46C46.2652 30 46.5196 30.1054 46.7071 30.2929C46.8946 30.4804 47 30.7348 47 31C47 31.2652 46.8946 31.5196 46.7071 31.7071C46.5196 31.8946 46.2652 32 46 32H34C33.7348 32 33.4804 31.8946 33.2929 31.7071C33.1054 31.5196 33 31.2652 33 31Z" fill="#A0A3BD"/>
<path fill-rule="evenodd" clip-rule="evenodd" d="M33 36C33 35.7348 33.1054 35.4804 33.2929 35.2929C33.4804 35.1054 33.7348 35 34 35H46C46.2652 35 46.5196 35.1054 46.7071 35.2929C46.8946 35.4804 47 35.7348 47 36C47 36.2652 46.8946 36.5196 46.7071 36.7071C46.5196 36.8946 46.2652 37 46 37H34C33.7348 37 33.4804 36.8946 33.2929 36.7071C33.1054 36.5196 33 36.2652 33 36Z" fill="#A0A3BD"/>
<path fill-rule="evenodd" clip-rule="evenodd" d="M33 41C33 40.7348 33.1054 40.4804 33.2929 40.2929C33.4804 40.1054 33.7348 40 34 40H46C46.2652 40 46.5196 40.1054 46.7071 40.2929C46.8946 40.4804 47 40.7348 47 41C47 41.2652 46.8946 41.5196 46.7071 41.7071C46.5196 41.8946 46.2652 42 46 42H34C33.7348 42 33.4804 41.8946 33.2929 41.7071C33.1054 41.5196 33 41.2652 33 41Z" fill="#A0A3BD"/>
<defs>
<filter id="filter0_d" x="0" y="0" width="80" height="80" filterUnits="userSpaceOnUse" color-interpolation-filters="sRGB">
<feFlood flood-opacity="0" result="BackgroundImageFix"/>
<feColorMatrix in="SourceAlpha" type="matrix" values="0 0 0 0 0 0 0 0 0 0 0 0 0 0 0 0 0 0 127 0"/>
<feOffset dy="4"/>
<feGaussianBlur stdDeviation="5"/>
<feColorMatrix type="matrix" values="0 0 0 0 0 0 0 0 0 0 0 0 0 0 0 0 0 0 0.1 0"/>
<feBlend mode="normal" in2="BackgroundImageFix" result="effect1_dropShadow"/>
<feBlend mode="normal" in="SourceGraphic" in2="effect1_dropShadow" result="shape"/>
</filter>
</defs>
</svg>
