<svg width="121" height="130" xmlns="http://www.w3.org/2000/svg" xmlns:xlink="http://www.w3.org/1999/xlink" overflow="hidden"><defs><clipPath id="clip0"><rect x="484" y="288" width="121" height="130"/></clipPath><clipPath id="clip1"><rect x="484" y="297" width="120" height="120"/></clipPath><clipPath id="clip2"><rect x="484" y="297" width="120" height="120"/></clipPath><clipPath id="clip3"><rect x="484" y="297" width="120" height="120"/></clipPath></defs><g clip-path="url(#clip0)" transform="translate(-484 -288)"><g clip-path="url(#clip1)"><g clip-path="url(#clip2)"><g clip-path="url(#clip3)"><path d="M580.586 340.586C580.586 364.21 554.233 399.848 546.259 410.091 545.098 411.583 542.902 411.583 541.741 410.091 533.767 399.848 507.414 364.21 507.414 340.586 507.414 330.882 511.269 321.577 518.13 314.716 524.991 307.854 534.297 304 544 304 553.703 304 563.009 307.854 569.87 314.716 576.731 321.577 580.586 330.882 580.586 340.586Z" fill="#10A1D1"/><path d="M544 368.422C559.374 368.422 571.836 355.959 571.836 340.586 571.836 325.212 559.374 312.749 544 312.749 528.626 312.749 516.164 325.212 516.164 340.586 516.164 355.959 528.626 368.422 544 368.422Z" fill="#FFFFFF"/><path d="M530.576 348.809C530.273 348.809 529.977 348.719 529.725 348.551 529.473 348.383 529.277 348.144 529.161 347.864 529.045 347.584 529.015 347.276 529.074 346.979 529.133 346.682 529.278 346.409 529.492 346.195L535.667 340.02C535.809 339.874 535.978 339.758 536.164 339.677 536.351 339.597 536.552 339.555 536.756 339.553 536.959 339.551 537.161 339.59 537.349 339.667 537.537 339.744 537.708 339.858 537.852 340.002 537.995 340.146 538.109 340.317 538.186 340.505 538.263 340.693 538.302 340.895 538.3 341.098 538.298 341.301 538.256 341.502 538.175 341.689 538.095 341.876 537.978 342.045 537.832 342.186L531.662 348.36C531.52 348.503 531.351 348.616 531.164 348.693 530.978 348.77 530.778 348.81 530.576 348.809Z" fill="#9EE2F8"/><path d="M541.745 348.809C541.442 348.809 541.146 348.719 540.895 348.551 540.643 348.383 540.446 348.144 540.33 347.864 540.214 347.584 540.184 347.276 540.243 346.979 540.302 346.682 540.448 346.409 540.662 346.195L546.612 340.245C546.899 339.958 547.289 339.797 547.695 339.797 548.101 339.797 548.49 339.958 548.777 340.245 549.065 340.533 549.226 340.922 549.226 341.328 549.226 341.734 549.065 342.124 548.777 342.411L542.828 348.361C542.685 348.503 542.517 348.616 542.331 348.693 542.145 348.77 541.946 348.809 541.745 348.809Z" fill="#9EE2F8"/><path d="M552.914 348.809C552.612 348.809 552.316 348.719 552.064 348.551 551.812 348.383 551.616 348.144 551.5 347.864 551.384 347.584 551.354 347.276 551.412 346.979 551.471 346.682 551.617 346.409 551.831 346.195L558.212 339.815C558.499 339.528 558.888 339.366 559.294 339.366 559.7 339.366 560.089 339.528 560.377 339.815 560.664 340.102 560.825 340.491 560.825 340.897 560.825 341.303 560.664 341.692 560.377 341.979L553.997 348.36C553.855 348.502 553.686 348.615 553.5 348.692 553.315 348.769 553.116 348.809 552.914 348.809Z" fill="#9EE2F8"/><path d="M530.576 357.32C530.273 357.32 529.978 357.23 529.726 357.062 529.475 356.893 529.279 356.655 529.163 356.375 529.047 356.096 529.017 355.789 529.075 355.492 529.134 355.195 529.279 354.922 529.492 354.708L534.003 350.197C534.29 349.91 534.68 349.749 535.086 349.749 535.492 349.749 535.882 349.91 536.169 350.197 536.456 350.485 536.617 350.874 536.617 351.28 536.617 351.686 536.456 352.076 536.169 352.363L531.662 356.872C531.52 357.015 531.351 357.128 531.164 357.205 530.977 357.282 530.778 357.321 530.576 357.32Z" fill="#9EE2F8"/><path d="M541.745 357.32C541.443 357.319 541.147 357.23 540.896 357.061 540.644 356.893 540.448 356.655 540.332 356.375 540.216 356.096 540.186 355.788 540.245 355.492 540.303 355.195 540.448 354.922 540.662 354.708L545.172 350.197C545.459 349.91 545.848 349.749 546.255 349.749 546.661 349.749 547.05 349.91 547.338 350.197 547.625 350.484 547.786 350.874 547.786 351.28 547.787 351.686 547.625 352.076 547.338 352.363L542.828 356.874C542.686 357.016 542.517 357.128 542.331 357.205 542.145 357.281 541.946 357.32 541.745 357.32Z" fill="#9EE2F8"/><path d="M552.914 357.32C552.612 357.32 552.316 357.23 552.065 357.062 551.814 356.893 551.618 356.655 551.502 356.375 551.386 356.096 551.355 355.789 551.414 355.492 551.473 355.195 551.618 354.922 551.831 354.708L556.342 350.197C556.629 349.91 557.018 349.749 557.425 349.749 557.831 349.749 558.22 349.91 558.508 350.197 558.795 350.485 558.956 350.874 558.956 351.28 558.956 351.686 558.795 352.076 558.508 352.363L553.997 356.874C553.855 357.016 553.686 357.128 553.5 357.205 553.314 357.281 553.115 357.32 552.914 357.32Z" fill="#9EE2F8"/><path d="M558.068 333.926C558.019 333.926 557.971 333.932 557.922 333.933 557.889 331.924 557.162 329.988 555.863 328.455 554.564 326.922 552.773 325.887 550.797 325.525 548.82 325.163 546.78 325.497 545.022 326.47 543.264 327.444 541.898 328.996 541.155 330.863 540.306 330.126 539.287 329.612 538.19 329.367 537.093 329.121 535.952 329.153 534.87 329.458 533.788 329.763 532.799 330.333 531.991 331.116 531.184 331.898 530.584 332.869 530.246 333.942 530.142 333.935 530.038 333.926 529.932 333.926 528.781 333.958 527.689 334.438 526.887 335.263 526.084 336.088 525.636 337.194 525.636 338.345 525.636 339.495 526.084 340.601 526.887 341.426 527.689 342.251 528.781 342.731 529.932 342.763L558.068 342.763C559.219 342.731 560.311 342.251 561.113 341.426 561.916 340.601 562.364 339.495 562.364 338.345 562.364 337.194 561.916 336.088 561.113 335.263 560.311 334.438 559.219 333.958 558.068 333.926Z" fill="#10A1D1"/></g></g></g><path d="M522.5 343.5C522.5 331.902 532.574 322.5 545 322.5 557.426 322.5 567.5 331.902 567.5 343.5 567.5 355.098 557.426 364.5 545 364.5 532.574 364.5 522.5 355.098 522.5 343.5Z" stroke="#FFFFFF" stroke-linejoin="round" stroke-miterlimit="10" fill="#FFFFFF" fill-rule="evenodd"/><text fill="#FF0000" font-family="Aharoni,Aharoni_MSFontService,sans-serif" font-weight="700" font-size="59" transform="translate(527.562 361)">S</text></g></svg>