<?xml version="1.0" encoding="utf-8"?>
<!-- Generator: Adobe Illustrator 24.3.0, SVG Export Plug-In . SVG Version: 6.00 Build 0)  -->
<svg xmlns:xlink="http://www.w3.org/1999/xlink" version="1.1" id="Layer_1" xmlns="http://www.w3.org/2000/svg" x="0px"
     y="0px"
     viewBox="0 0 120 120" style="enable-background:new 0 0 120 120;" xml:space="preserve">
<style type="text/css">
	.st0{fill:#F18945;}
	.st1{fill:#FFFFFF;}
	.st2{fill:none;}
	.st3{enable-background:new    ;}
	.st4{fill:#EF7B0D;}
</style>
    <path class="st0" d="M96.6,43.6c0,23.6-26.4,59.3-34.3,69.5c-1.2,1.5-3.4,1.5-4.5,0c-8-10.2-34.3-45.9-34.3-69.5
	c0-9.7,3.9-19,10.7-25.9C41,10.9,50.3,7,60,7s19,3.9,25.9,10.7C92.7,24.6,96.6,33.9,96.6,43.6z"/>
    <path class="st1" d="M60,71.4c15.4,0,27.8-12.5,27.8-27.8S75.4,15.7,60,15.7S32.2,28.2,32.2,43.5S44.6,71.4,60,71.4z"/>
    <rect x="41.1" y="19.6" class="st2" width="37.8" height="48"/>
    <g class="st3">
	<path class="st4" d="M43.9,52.4h7.9c0.2,1.8,1,3.3,2.4,4.3c1.4,1,3.3,1.5,5.7,1.5c2.3,0,4.1-0.5,5.4-1.5s2-2.4,2-4.1
		c0-1.4-0.5-2.6-1.6-3.4c-1-0.8-2.8-1.5-5.2-2.1l-4.4-1c-7.6-1.7-11.4-5.7-11.4-12c0-3.9,1.4-7.1,4.1-9.4c2.7-2.3,6.3-3.5,10.9-3.5
		c4.4,0,8,1.1,10.7,3.4c2.7,2.3,4.2,5.3,4.3,9.1H67c-0.2-1.7-0.9-3.1-2.1-4.1c-1.3-1-2.9-1.5-5-1.5c-2.1,0-3.7,0.5-5,1.4
		c-1.2,0.9-1.8,2.2-1.8,3.8c0,1.5,0.5,2.7,1.5,3.6c1,0.9,2.7,1.6,4.9,2.1l4.3,1c4.1,0.9,7.1,2.3,8.9,4.2s2.8,4.5,2.8,7.7
		c0,4.2-1.4,7.5-4.2,9.8s-6.7,3.6-11.6,3.6c-4.8,0-8.6-1.1-11.4-3.4C45.5,59.4,44,56.3,43.9,52.4z"/>
</g>
</svg>
