<svg width="466" height="49" viewBox="0 0 466 49" fill="none" xmlns="http://www.w3.org/2000/svg">
<path d="M59.992 3.392L47.064 48H40.536L30.168 12.096L19.416 48L12.952 48.064L0.472 3.392H6.68L16.408 41.216L27.16 3.392H33.688L43.928 41.088L53.72 3.392H59.992ZM84.7735 12.288C87.4188 12.288 89.8082 12.864 91.9415 14.016C94.0748 15.1253 95.7388 16.8107 96.9335 19.072C98.1708 21.3333 98.7895 24.0853 98.7895 27.328V48H93.0295V28.16C93.0295 24.6613 92.1548 21.9947 90.4055 20.16C88.6562 18.2827 86.2668 17.344 83.2375 17.344C80.1655 17.344 77.7122 18.304 75.8775 20.224C74.0855 22.144 73.1895 24.9387 73.1895 28.608V48H67.3655V0.639999H73.1895V17.92C74.3415 16.128 75.9202 14.7413 77.9255 13.76C79.9735 12.7787 82.2562 12.288 84.7735 12.288ZM141.303 29.12C141.303 30.2293 141.239 31.4027 141.111 32.64H113.079C113.292 36.096 114.466 38.8053 116.599 40.768C118.775 42.688 121.399 43.648 124.471 43.648C126.988 43.648 129.079 43.072 130.743 41.92C132.45 40.7253 133.644 39.1467 134.327 37.184H140.599C139.66 40.5547 137.783 43.3067 134.967 45.44C132.151 47.5307 128.652 48.576 124.471 48.576C121.143 48.576 118.156 47.8293 115.511 46.336C112.908 44.8427 110.86 42.7307 109.367 40C107.874 37.2267 107.127 34.0267 107.127 30.4C107.127 26.7733 107.852 23.5947 109.303 20.864C110.754 18.1333 112.78 16.0427 115.383 14.592C118.028 13.0987 121.058 12.352 124.471 12.352C127.799 12.352 130.743 13.0773 133.303 14.528C135.863 15.9787 137.826 17.984 139.191 20.544C140.599 23.0613 141.303 25.92 141.303 29.12ZM135.287 27.904C135.287 25.6853 134.796 23.7867 133.815 22.208C132.834 20.5867 131.49 19.3707 129.783 18.56C128.119 17.7067 126.263 17.28 124.215 17.28C121.271 17.28 118.754 18.2187 116.663 20.096C114.615 21.9733 113.442 24.576 113.143 27.904H135.287ZM155.815 18.624C156.839 16.6187 158.289 15.0613 160.167 13.952C162.087 12.8427 164.412 12.288 167.143 12.288V18.304H165.607C159.079 18.304 155.815 21.8453 155.815 28.928V48H149.991V12.928H155.815V18.624ZM206.866 29.12C206.866 30.2293 206.802 31.4027 206.674 32.64H178.642C178.855 36.096 180.028 38.8053 182.162 40.768C184.338 42.688 186.962 43.648 190.034 43.648C192.551 43.648 194.642 43.072 196.306 41.92C198.012 40.7253 199.207 39.1467 199.89 37.184H206.162C205.223 40.5547 203.346 43.3067 200.53 45.44C197.714 47.5307 194.215 48.576 190.034 48.576C186.706 48.576 183.719 47.8293 181.074 46.336C178.471 44.8427 176.423 42.7307 174.93 40C173.436 37.2267 172.69 34.0267 172.69 30.4C172.69 26.7733 173.415 23.5947 174.866 20.864C176.316 18.1333 178.343 16.0427 180.946 14.592C183.591 13.0987 186.62 12.352 190.034 12.352C193.362 12.352 196.306 13.0773 198.866 14.528C201.426 15.9787 203.388 17.984 204.754 20.544C206.162 23.0613 206.866 25.92 206.866 29.12ZM200.85 27.904C200.85 25.6853 200.359 23.7867 199.378 22.208C198.396 20.5867 197.052 19.3707 195.346 18.56C193.682 17.7067 191.826 17.28 189.778 17.28C186.834 17.28 184.316 18.2187 182.226 20.096C180.178 21.9733 179.004 24.576 178.706 27.904H200.85ZM267.856 48L262.032 42.112C259.856 44.3733 257.53 46.0587 255.056 47.168C252.581 48.2347 249.786 48.768 246.672 48.768C243.6 48.768 240.869 48.2133 238.48 47.104C236.133 45.9947 234.298 44.416 232.976 42.368C231.696 40.32 231.056 37.9307 231.056 35.2C231.056 32.0853 231.93 29.3547 233.68 27.008C235.472 24.6187 238.096 22.7413 241.552 21.376C240.186 19.7547 239.205 18.2613 238.608 16.896C238.01 15.5307 237.712 14.0373 237.712 12.416C237.712 10.5387 238.181 8.85333 239.12 7.36C240.101 5.824 241.488 4.62933 243.28 3.776C245.072 2.92266 247.141 2.496 249.488 2.496C251.792 2.496 253.797 2.944 255.504 3.84C257.21 4.736 258.49 5.99466 259.344 7.616C260.197 9.19466 260.581 10.9653 260.496 12.928H254.672C254.714 11.1787 254.224 9.81333 253.2 8.832C252.176 7.808 250.853 7.296 249.232 7.296C247.525 7.296 246.138 7.78666 245.072 8.768C244.048 9.70667 243.536 10.9227 243.536 12.416C243.536 13.696 243.877 14.9333 244.56 16.128C245.285 17.3227 246.48 18.7947 248.144 20.544L261.456 33.92L262.608 32.128L266.96 24.832H273.232L267.984 33.92C267.258 35.2 266.405 36.544 265.424 37.952L275.472 48H267.856ZM246.672 43.776C248.976 43.776 251.045 43.328 252.88 42.432C254.757 41.536 256.528 40.1493 258.192 38.272L245.072 25.088C239.61 27.1787 236.88 30.4853 236.88 35.008C236.88 37.5253 237.776 39.616 239.568 41.28C241.402 42.944 243.77 43.776 246.672 43.776ZM356.055 3.392L343.127 48H336.599L326.231 12.096L315.479 48L309.015 48.064L296.535 3.392H302.743L312.471 41.216L323.223 3.392H329.751L339.991 41.088L349.783 3.392H356.055ZM395.428 29.12C395.428 30.2293 395.364 31.4027 395.236 32.64H367.204C367.417 36.096 368.591 38.8053 370.724 40.768C372.9 42.688 375.524 43.648 378.596 43.648C381.113 43.648 383.204 43.072 384.868 41.92C386.575 40.7253 387.769 39.1467 388.452 37.184H394.724C393.785 40.5547 391.908 43.3067 389.092 45.44C386.276 47.5307 382.777 48.576 378.596 48.576C375.268 48.576 372.281 47.8293 369.636 46.336C367.033 44.8427 364.985 42.7307 363.492 40C361.999 37.2267 361.252 34.0267 361.252 30.4C361.252 26.7733 361.977 23.5947 363.428 20.864C364.879 18.1333 366.905 16.0427 369.508 14.592C372.153 13.0987 375.183 12.352 378.596 12.352C381.924 12.352 384.868 13.0773 387.428 14.528C389.988 15.9787 391.951 17.984 393.316 20.544C394.724 23.0613 395.428 25.92 395.428 29.12ZM389.412 27.904C389.412 25.6853 388.921 23.7867 387.94 22.208C386.959 20.5867 385.615 19.3707 383.908 18.56C382.244 17.7067 380.388 17.28 378.34 17.28C375.396 17.28 372.879 18.2187 370.788 20.096C368.74 21.9733 367.567 24.576 367.268 27.904H389.412ZM401.94 30.336C401.94 26.752 402.665 23.616 404.116 20.928C405.566 18.1973 407.55 16.0853 410.068 14.592C412.628 13.0987 415.465 12.352 418.58 12.352C421.652 12.352 424.318 13.0133 426.58 14.336C428.841 15.6587 430.526 17.3227 431.636 19.328V12.928H437.524V48H431.636V41.472C430.484 43.52 428.756 45.2267 426.452 46.592C424.19 47.9147 421.545 48.576 418.516 48.576C415.401 48.576 412.585 47.808 410.068 46.272C407.55 44.736 405.566 42.5813 404.116 39.808C402.665 37.0347 401.94 33.8773 401.94 30.336ZM431.636 30.4C431.636 27.7547 431.102 25.4507 430.036 23.488C428.969 21.5253 427.518 20.032 425.684 19.008C423.892 17.9413 421.908 17.408 419.732 17.408C417.556 17.408 415.572 17.92 413.78 18.944C411.988 19.968 410.558 21.4613 409.492 23.424C408.425 25.3867 407.892 27.6907 407.892 30.336C407.892 33.024 408.425 35.3707 409.492 37.376C410.558 39.3387 411.988 40.8533 413.78 41.92C415.572 42.944 417.556 43.456 419.732 43.456C421.908 43.456 423.892 42.944 425.684 41.92C427.518 40.8533 428.969 39.3387 430.036 37.376C431.102 35.3707 431.636 33.0453 431.636 30.4ZM454.19 18.624C455.214 16.6187 456.664 15.0613 458.542 13.952C460.462 12.8427 462.787 12.288 465.518 12.288V18.304H463.982C457.454 18.304 454.19 21.8453 454.19 28.928V48H448.366V12.928H454.19V18.624Z" fill="#3D3D4A"/>
</svg>
